<svg width="168" height="32" viewBox="0 0 168 32" fill="none" xmlns="http://www.w3.org/2000/svg">
<path d="M43.9805 5.28711H47.8906V20.6357H57.1582V24H43.9805V5.28711ZM65.791 21.4482C66.849 21.4482 67.6615 21.0716 68.2285 20.3184C68.7956 19.5651 69.0791 18.4945 69.0791 17.1064C69.0791 15.7184 68.7956 14.652 68.2285 13.9072C67.6615 13.154 66.849 12.7773 65.791 12.7773C64.7331 12.7773 63.9163 13.154 63.3408 13.9072C62.7738 14.652 62.4902 15.7184 62.4902 17.1064C62.4902 18.4945 62.7738 19.5651 63.3408 20.3184C63.9163 21.0716 64.7331 21.4482 65.791 21.4482ZM72.875 17.1064C72.875 19.1377 72.291 20.877 71.123 22.3242C69.9551 23.763 68.182 24.4824 65.8037 24.4824C63.4255 24.4824 61.6523 23.763 60.4844 22.3242C59.3164 20.877 58.7324 19.1377 58.7324 17.1064C58.7324 15.109 59.3164 13.3783 60.4844 11.9141C61.6523 10.4499 63.4255 9.71777 65.8037 9.71777C68.182 9.71777 69.9551 10.4499 71.123 11.9141C72.291 13.3783 72.875 15.109 72.875 17.1064ZM81.4189 21.0293C82.2653 21.0293 82.9805 20.7119 83.5645 20.0771C84.1484 19.4339 84.4404 18.4141 84.4404 17.0176C84.4404 15.7057 84.1611 14.707 83.6025 14.0215C83.0524 13.3359 82.3118 12.9932 81.3809 12.9932C80.1113 12.9932 79.2354 13.5898 78.7529 14.7832C78.499 15.418 78.3721 16.2008 78.3721 17.1318C78.3721 17.9359 78.5075 18.651 78.7783 19.2773C79.2692 20.4453 80.1494 21.0293 81.4189 21.0293ZM80.5176 9.83203C81.2116 9.83203 81.8167 9.93783 82.333 10.1494C83.2132 10.5133 83.9242 11.182 84.4658 12.1553V10.1621H87.9824V23.2891C87.9824 25.0749 87.682 26.4206 87.0811 27.3262C86.0485 28.8835 84.068 29.6621 81.1396 29.6621C79.3708 29.6621 77.9277 29.3151 76.8105 28.6211C75.6934 27.9271 75.0755 26.8903 74.957 25.5107H78.8926C78.9941 25.9339 79.1592 26.2386 79.3877 26.4248C79.777 26.7549 80.4329 26.9199 81.3555 26.9199C82.6589 26.9199 83.5306 26.484 83.9707 25.6123C84.2585 25.0537 84.4023 24.1143 84.4023 22.7939V21.9053C84.0553 22.4977 83.6829 22.9421 83.2852 23.2383C82.5658 23.7884 81.6305 24.0635 80.4795 24.0635C78.7021 24.0635 77.2803 23.4414 76.2139 22.1973C75.1559 20.9447 74.627 19.252 74.627 17.1191C74.627 15.0625 75.139 13.3359 76.1631 11.9395C77.1872 10.5345 78.6387 9.83203 80.5176 9.83203ZM97.5801 21.4482C98.638 21.4482 99.4505 21.0716 100.018 20.3184C100.585 19.5651 100.868 18.4945 100.868 17.1064C100.868 15.7184 100.585 14.652 100.018 13.9072C99.4505 13.154 98.638 12.7773 97.5801 12.7773C96.5221 12.7773 95.7054 13.154 95.1299 13.9072C94.5628 14.652 94.2793 15.7184 94.2793 17.1064C94.2793 18.4945 94.5628 19.5651 95.1299 20.3184C95.7054 21.0716 96.5221 21.4482 97.5801 21.4482ZM104.664 17.1064C104.664 19.1377 104.08 20.877 102.912 22.3242C101.744 23.763 99.971 24.4824 97.5928 24.4824C95.2145 24.4824 93.4414 23.763 92.2734 22.3242C91.1055 20.877 90.5215 19.1377 90.5215 17.1064C90.5215 15.109 91.1055 13.3783 92.2734 11.9141C93.4414 10.4499 95.2145 9.71777 97.5928 9.71777C99.971 9.71777 101.744 10.4499 102.912 11.9141C104.08 13.3783 104.664 15.109 104.664 17.1064ZM122.133 9.80664C122.988 9.80664 123.762 9.95475 124.456 10.251C125.159 10.5472 125.734 11 126.183 11.6094C126.563 12.1257 126.796 12.6589 126.881 13.209C126.965 13.7507 127.008 14.6393 127.008 15.875V24H123.313V15.583C123.313 14.8382 123.187 14.2373 122.933 13.7803C122.603 13.137 121.976 12.8154 121.054 12.8154C120.097 12.8154 119.369 13.137 118.87 13.7803C118.379 14.415 118.134 15.3249 118.134 16.5098V24H114.528V5.35059H118.134V11.9648C118.659 11.1608 119.264 10.6022 119.949 10.2891C120.643 9.96745 121.371 9.80664 122.133 9.80664ZM135.856 12.7773C135.019 12.7773 134.367 13.0397 133.901 13.5645C133.444 14.0892 133.157 14.8001 133.038 15.6973H138.662C138.603 14.7409 138.311 14.0173 137.786 13.5264C137.27 13.027 136.627 12.7773 135.856 12.7773ZM135.856 9.79395C137.007 9.79395 138.044 10.0098 138.967 10.4414C139.889 10.873 140.651 11.5544 141.252 12.4854C141.794 13.3063 142.145 14.2585 142.306 15.3418C142.399 15.9766 142.437 16.8906 142.42 18.084H132.949C133 19.472 133.436 20.4453 134.257 21.0039C134.756 21.3509 135.357 21.5244 136.06 21.5244C136.804 21.5244 137.41 21.3128 137.875 20.8896C138.129 20.6611 138.353 20.3438 138.548 19.9375H142.242C142.149 20.7585 141.722 21.5921 140.96 22.4385C139.775 23.7842 138.116 24.457 135.983 24.457C134.223 24.457 132.67 23.89 131.324 22.7559C129.979 21.6217 129.306 19.7767 129.306 17.2207C129.306 14.8255 129.911 12.9889 131.121 11.7109C132.34 10.4329 133.918 9.79395 135.856 9.79395ZM152.386 9.83203C152.453 9.83203 152.508 9.83626 152.551 9.84473C152.602 9.84473 152.707 9.84896 152.868 9.85742V13.5645C152.64 13.5391 152.437 13.5221 152.259 13.5137C152.081 13.5052 151.937 13.501 151.827 13.501C150.371 13.501 149.394 13.9749 148.895 14.9229C148.615 15.4561 148.476 16.277 148.476 17.3857V24H144.832V10.1621H148.285V12.5742C148.844 11.6517 149.33 11.0212 149.745 10.6826C150.422 10.1156 151.302 9.83203 152.386 9.83203ZM160.46 12.7773C159.622 12.7773 158.97 13.0397 158.505 13.5645C158.048 14.0892 157.76 14.8001 157.642 15.6973H163.266C163.206 14.7409 162.914 14.0173 162.39 13.5264C161.873 13.027 161.23 12.7773 160.46 12.7773ZM160.46 9.79395C161.611 9.79395 162.648 10.0098 163.57 10.4414C164.493 10.873 165.255 11.5544 165.855 12.4854C166.397 13.3063 166.748 14.2585 166.909 15.3418C167.002 15.9766 167.04 16.8906 167.023 18.084H157.553C157.604 19.472 158.039 20.4453 158.86 21.0039C159.36 21.3509 159.961 21.5244 160.663 21.5244C161.408 21.5244 162.013 21.3128 162.479 20.8896C162.732 20.6611 162.957 20.3438 163.151 19.9375H166.846C166.753 20.7585 166.325 21.5921 165.563 22.4385C164.379 23.7842 162.72 24.457 160.587 24.457C158.826 24.457 157.273 23.89 155.928 22.7559C154.582 21.6217 153.909 19.7767 153.909 17.2207C153.909 14.8255 154.514 12.9889 155.725 11.7109C156.943 10.4329 158.522 9.79395 160.46 9.79395Z" fill="#3E2E83"/>
<path d="M30.4899 3.34249C30.3733 3.13919 30.2051 2.97025 30.0023 2.85274C29.7996 2.73523 29.5694 2.67331 29.335 2.67322L22.7075 2.668L22.6976 2.66667L17.8396 2.668C17.6257 2.66823 17.4151 2.71979 17.2253 2.81835C17.0355 2.91692 16.8722 3.05961 16.7491 3.23442L16.0043 4.29562L15.2517 3.23182C15.1287 3.05757 14.9658 2.91541 14.7764 2.81729C14.5871 2.71917 14.377 2.66797 14.1638 2.668L9.30244 2.66667H9.30179L9.29984 2.66691L9.29788 2.66667H9.29072L2.65987 2.70312C2.42562 2.7043 2.19582 2.76716 1.9936 2.8854C1.79139 3.00364 1.62389 3.17307 1.50798 3.37663C1.39208 3.58019 1.33185 3.8107 1.33337 4.04495C1.33489 4.27919 1.3981 4.5089 1.51664 4.71094L14.876 27.5183C14.9937 27.7188 15.1618 27.8851 15.3636 28.0007C15.5654 28.1163 15.7939 28.1771 16.0264 28.1772H16.0277C16.2606 28.177 16.4894 28.1158 16.6914 27.9998C16.8933 27.8837 17.0613 27.7168 17.1788 27.5157L30.486 4.67848C30.6039 4.47573 30.6663 4.24552 30.667 4.01101C30.6676 3.77649 30.6066 3.54593 30.4899 3.34249ZM13.473 5.3347L14.9197 7.37898C15.0427 7.55329 15.2058 7.6955 15.3952 7.79361C15.5846 7.89173 15.7949 7.94289 16.0082 7.94278H16.0102C16.2238 7.94226 16.4341 7.89056 16.6236 7.79201C16.8132 7.69346 16.9763 7.55093 17.0994 7.37636L18.533 5.3347L20.3499 5.33336L16.0245 12.605L11.6579 5.33341L13.473 5.3347ZM16.0231 24.2006L4.98604 5.35684L8.54594 5.33731L14.8838 15.8946C15.0024 16.092 15.17 16.2552 15.3703 16.3686C15.5706 16.482 15.7969 16.5417 16.0271 16.5418H16.0296L16.031 16.5416L16.0323 16.5418H16.035C16.2657 16.5412 16.4923 16.4809 16.6927 16.3665C16.8931 16.2522 17.0604 16.0878 17.1782 15.8894L23.4555 5.33476L27.0149 5.33867L16.0231 24.2006Z" fill="#3E2E83"/>
</svg>
